<svg width="14" height="16" viewBox="0 0 14 16" fill="none" xmlns="http://www.w3.org/2000/svg">
<path d="M2.77896 15.8039H2.99496C6.33096 14.2199 8.20296 13.1399 8.61096 12.5639L8.82696 12.7799H9.25896L12.931 11.0519L13.795 10.1879V9.9719C13.147 8.6759 12.715 8.0279 12.499 8.0279H11.419C11.419 7.4759 10.915 7.0439 9.90696 6.7319L1.48296 0.899902L1.05096 1.3319V1.9799C2.87496 3.8039 5.10696 5.6759 7.74696 7.5959L10.555 9.1079V9.5399C9.90696 9.5639 9.04296 9.9959 7.96296 10.8359C7.84296 10.6919 7.69896 10.6199 7.53096 10.6199L0.834961 14.2919L1.69896 15.3719C1.81896 15.2279 1.96296 15.1559 2.13096 15.1559L2.77896 15.8039Z" fill="#373737"/>
</svg>
