<svg width="64" height="20" viewBox="0 0 75 20" fill="none" xmlns="http://www.w3.org/2000/svg">
<path d="M7.183 1.648C7.26833 1.56267 7.76967 1.552 8.687 1.616L10.063 1.68L10.127 6.032L10.159 10.384L9.519 10.64C9.071 10.7893 8.783 10.768 8.655 10.576C8.527 10.3413 8.463 9.04 8.463 6.672V3.088L7.663 3.248C4.655 3.71733 2.93767 4.05867 2.511 4.272C2.29767 4.336 2.095 4.18667 1.903 3.824C1.66833 3.39733 1.743 3.06667 2.127 2.832C2.511 2.59733 3.36433 2.37333 4.687 2.16C6.287 1.904 7.119 1.73333 7.183 1.648ZM10.703 15.664C11.6417 15.536 12.1537 15.4507 12.239 15.408C12.367 15.3867 12.5163 15.4613 12.687 15.632C12.8577 15.8027 12.975 15.9947 13.039 16.208C13.1457 16.5067 13.0283 16.816 12.687 17.136C12.3883 17.4133 12.111 17.5733 11.855 17.616C11.599 17.6587 11.3003 17.5947 10.959 17.424C10.7243 17.2747 9.11367 17.4027 6.127 17.808C4.80433 18 3.78033 18.128 3.055 18.192C2.351 18.2773 1.76433 18.32 1.295 18.32C0.847 18.32 0.559 18.2667 0.431 18.16C0.303 18.0747 0.217667 17.9253 0.175 17.712C0.111 17.328 0.399 17.0293 1.039 16.816C1.679 16.5813 2.72433 16.4107 4.175 16.304C6.799 16.1333 8.975 15.92 10.703 15.664ZM28.499 1.168C28.6483 0.954666 28.883 0.901333 29.203 1.008C29.5443 1.09333 29.7577 1.264 29.843 1.52C29.9283 1.776 29.8963 2.256 29.747 2.96C29.5763 3.68533 29.491 4.45333 29.491 5.264C29.491 5.904 29.523 6.27733 29.587 6.384C29.651 6.49067 29.8537 6.52267 30.195 6.48C30.643 6.416 31.0057 6.33067 31.283 6.224C31.603 6.11733 31.9017 6.10667 32.179 6.192C32.4777 6.256 32.7017 6.416 32.851 6.672C33.0003 6.90667 33.0217 7.16267 32.915 7.44C32.8083 7.696 32.4563 7.824 31.859 7.824C31.283 7.824 30.6643 8.00533 30.003 8.368L28.979 8.88L28.915 10.928C28.8937 11.44 28.8723 11.824 28.851 12.08C28.8297 12.3147 28.787 12.528 28.723 12.72C28.6803 12.8907 28.6163 13.008 28.531 13.072C28.467 13.136 28.3603 13.2107 28.211 13.296C27.6777 13.5733 27.3577 13.5093 27.251 13.104C27.123 12.656 27.219 11.0347 27.539 8.24C27.8163 5.78667 27.9977 4.06933 28.083 3.088C28.211 1.97867 28.3497 1.33867 28.499 1.168ZM17.779 1.84C18.7603 1.52 19.891 1.34933 21.171 1.328C22.4723 1.28533 23.1763 1.41333 23.283 1.712C23.3897 2.01067 23.443 3.33333 23.443 5.68C23.443 7.10933 23.4003 8.13333 23.315 8.752C23.2297 9.37067 23.0803 9.79733 22.867 10.032C22.675 10.2453 22.3337 10.352 21.843 10.352C21.0323 10.352 19.923 10.3947 18.515 10.48C16.8297 10.5867 15.8483 10.5333 15.571 10.32C15.315 10.1067 15.091 9.328 14.899 7.984C14.707 6.61867 14.643 5.31733 14.707 4.08C14.7283 3.29067 14.771 2.82133 14.835 2.672C14.9203 2.52267 15.1443 2.42667 15.507 2.384C15.9977 2.34133 16.755 2.16 17.779 1.84ZM21.779 4.144C21.8857 3.632 21.907 3.33333 21.843 3.248C21.8003 3.14133 21.6083 3.09867 21.267 3.12C20.4777 3.14133 19.283 3.344 17.683 3.728L16.115 4.144L16.307 6.32C16.4137 7.792 16.563 8.58133 16.755 8.688C16.947 8.83733 17.6297 8.848 18.803 8.72C19.443 8.67733 20.1897 8.61333 21.043 8.528C21.2563 8.50667 21.3843 8.4 21.427 8.208C21.491 7.99467 21.5337 7.536 21.555 6.832C21.5763 5.744 21.651 4.848 21.779 4.144ZM20.435 14.288C20.7763 13.8613 21.1817 13.808 21.651 14.128C21.8857 14.2773 21.939 14.672 21.811 15.312C21.4697 16.976 21.459 17.8613 21.779 17.968C21.9497 18.0533 22.6217 17.9893 23.795 17.776C25.0963 17.5413 26.2377 17.4027 27.219 17.36L28.819 17.264V18.032C28.819 18.3947 28.7443 18.6187 28.595 18.704C28.467 18.7893 28.0083 18.8853 27.219 18.992C26.1097 19.0987 25.235 19.248 24.595 19.44C23.955 19.6107 23.1017 19.7173 22.035 19.76C20.9897 19.8027 20.3923 19.7493 20.243 19.6C20.0937 19.4293 20.0403 18.5547 20.083 16.976C20.147 15.376 20.2643 14.48 20.435 14.288ZM51.823 1.36C51.9083 1.14667 52.1643 1.05067 52.591 1.072C53.039 1.09333 53.3057 1.21067 53.391 1.424C53.4763 1.63733 53.4443 2.42667 53.295 3.792C53.1243 4.944 52.9857 6.13867 52.879 7.376C52.7937 8.528 52.6337 9.33867 52.399 9.808C52.1857 10.1493 51.983 10.3733 51.791 10.48C51.599 10.5653 51.215 10.64 50.639 10.704C49.5937 10.8107 48.5057 10.9387 47.375 11.088C46.3083 11.216 45.5937 11.2587 45.231 11.216C44.8897 11.1733 44.655 10.992 44.527 10.672C44.4203 10.416 44.3137 8.89067 44.207 6.096C44.1643 4.28267 44.1643 3.12 44.207 2.608C44.2497 2.07467 44.3563 1.73333 44.527 1.584C45.1457 1.072 45.519 1.424 45.647 2.64C45.6683 2.896 45.679 3.17333 45.679 3.472C45.679 4.34667 45.743 4.848 45.871 4.976C45.999 5.08267 46.4577 5.04 47.247 4.848C47.823 4.67733 48.6977 4.56 49.871 4.496L51.567 4.4L51.663 3.056C51.6843 2.24533 51.7377 1.68 51.823 1.36ZM50.799 6.224C50.1377 5.98933 48.719 6.17067 46.543 6.768C46.2017 6.87467 45.9883 6.992 45.903 7.12C45.839 7.248 45.839 7.536 45.903 7.984C45.9243 8.624 45.9883 9.01867 46.095 9.168C46.2443 9.40267 46.9803 9.43467 48.303 9.264C49.647 9.09333 50.511 8.848 50.895 8.528C51.1297 8.35733 51.2363 7.952 51.215 7.312C51.1937 6.672 51.055 6.30933 50.799 6.224ZM49.199 12.944C49.6043 12.752 49.8817 12.6987 50.031 12.784C50.159 12.8907 50.1697 13.4773 50.063 14.544L49.903 16.144L52.687 15.984C54.0523 15.8987 54.8523 15.8773 55.087 15.92C55.343 15.9413 55.5137 16.1013 55.599 16.4C55.6843 16.656 55.6737 16.88 55.567 17.072C55.4603 17.2427 55.2683 17.3813 54.991 17.488C54.735 17.5947 54.4043 17.648 53.999 17.648C53.3163 17.648 52.047 17.7867 50.191 18.064C48.335 18.3627 47.087 18.6187 46.447 18.832C45.7217 19.0667 45.2417 19.088 45.007 18.896C44.623 18.576 44.559 18.2133 44.815 17.808C45.0923 17.3813 45.5297 17.1573 46.127 17.136C46.511 17.136 46.991 17.0187 47.567 16.784C47.951 16.6347 48.1857 16.496 48.271 16.368C48.3563 16.24 48.367 15.984 48.303 15.6C48.2177 15.0027 48.2603 14.4587 48.431 13.968C48.6017 13.456 48.8577 13.1147 49.199 12.944ZM73.3647 3.376C73.5141 3.14133 73.7488 3.056 74.0688 3.12C74.4101 3.16267 74.6341 3.33333 74.7408 3.632C74.8688 4.016 74.8688 5.296 74.7408 7.472C74.6128 9.86133 74.5487 12.016 74.5487 13.936C74.5274 16.0267 74.4208 17.168 74.2288 17.36C74.0154 17.552 73.7701 17.648 73.4928 17.648C73.2154 17.6267 73.0448 17.52 72.9808 17.328C72.8954 17.072 72.9168 14.7253 73.0448 10.288C73.1728 5.85067 73.2794 3.54667 73.3647 3.376ZM63.0928 4.72C63.6688 4.61333 64.1061 4.53867 64.4048 4.496C64.7248 4.45333 65.0341 4.42133 65.3328 4.4C65.6314 4.37867 65.8448 4.37867 65.9728 4.4C66.1221 4.4 66.2501 4.432 66.3568 4.496C66.4848 4.53867 66.5701 4.60267 66.6128 4.688C66.6554 4.752 66.7088 4.85867 66.7728 5.008C67.0928 5.84 66.7621 8.272 65.7808 12.304C65.5034 13.4773 65.2901 14.256 65.1408 14.64C64.9914 15.0027 64.8101 15.2053 64.5968 15.248C64.1061 15.376 63.8074 15.28 63.7008 14.96C63.5941 14.64 63.6688 14.0533 63.9248 13.2C64.1808 12.3893 64.4688 11.0453 64.7888 9.168C65.1301 7.29067 65.2581 6.30933 65.1728 6.224C65.0874 6.13867 64.6288 6.17067 63.7968 6.32C61.3861 6.832 59.8608 7.13067 59.2208 7.216C58.6021 7.28 58.1221 7.248 57.7808 7.12C56.8421 6.69333 57.2048 6.20267 58.8688 5.648C59.8928 5.30667 61.3008 4.99733 63.0928 4.72Z" fill="white"/>
</svg>
