<svg width="20" height="15" viewBox="0 0 20 15" fill="none" xmlns="http://www.w3.org/2000/svg">
<path fill-rule="evenodd" clip-rule="evenodd" d="M18.8833 0.0134171C20.0038 0.0662676 20.1306 0.140248 19.8135 0.531342C19.4647 0.964716 18.7354 1.07045 13.0698 1.25014C19.6127 1.37697 20.2152 1.52495 19.9509 2.02175C19.6127 2.64538 17.4458 2.58196 6.89688 2.6031C3.73642 2.61367 1.98178 2.79337 1.08332 2.75108C-0.163954 2.68766 0.14258 2.20144 0.660515 1.97947L0.375122 1.92662C-0.375355 1.7892 0.0791607 0.922468 1.04104 0.668785C1.88665 0.446813 6.74889 0.214249 11.4314 0.171969C17.6255 0.129688 17.6044 -0.0500035 18.8833 0.0134171Z" fill="#373737"/>
<path fill-rule="evenodd" clip-rule="evenodd" d="M18.8833 12.0134C20.0038 12.0663 20.1306 12.1402 19.8135 12.5313C19.4647 12.9647 18.7354 13.0704 13.0698 13.2501C19.6127 13.377 20.2152 13.525 19.9509 14.0217C19.6127 14.6454 17.4458 14.582 6.89688 14.6031C3.73642 14.6137 1.98178 14.7934 1.08332 14.7511C-0.163954 14.6877 0.14258 14.2014 0.660515 13.9795L0.375122 13.9266C-0.375355 13.7892 0.0791607 12.9225 1.04104 12.6688C1.88665 12.4468 6.74889 12.2142 11.4314 12.172C17.6255 12.1297 17.6044 11.95 18.8833 12.0134Z" fill="#373737"/>
<path fill-rule="evenodd" clip-rule="evenodd" d="M1.11666 6.01342C-0.00377533 6.06627 -0.130622 6.14025 0.186481 6.53134C0.535291 6.96472 1.26464 7.07045 6.93021 7.25014C0.387318 7.37697 -0.215188 7.52495 0.0490646 8.02175C0.387308 8.64538 2.55418 8.58196 13.1031 8.6031C16.2636 8.61367 18.0182 8.79337 18.9167 8.75108C20.164 8.68766 19.8574 8.20144 19.3395 7.97947L19.6249 7.92662C20.3754 7.7892 19.9208 6.92247 18.959 6.66879C18.1134 6.44681 13.2511 6.21425 8.56858 6.17197C2.3745 6.12969 2.39564 5.95 1.11666 6.01342Z" fill="#373737"/>
</svg>
