<svg width="14" height="16" viewBox="0 0 14 16" fill="none" xmlns="http://www.w3.org/2000/svg">
<path d="M11.2211 15.8039H11.0051C7.66908 14.2199 5.79708 13.1399 5.38908 12.5639L5.17308 12.7799H4.74108L1.06908 11.0519L0.205078 10.1879V9.9719C0.853078 8.6759 1.28508 8.0279 1.50108 8.0279H2.58108C2.58108 7.4759 3.08508 7.0439 4.09308 6.7319L12.5171 0.899902L12.9491 1.3319V1.9799C11.1251 3.8039 8.89308 5.6759 6.25308 7.5959L3.44508 9.1079V9.5399C4.09308 9.5639 4.95708 9.9959 6.03708 10.8359C6.15708 10.6919 6.30108 10.6199 6.46908 10.6199L13.1651 14.2919L12.3011 15.3719C12.1811 15.2279 12.0371 15.1559 11.8691 15.1559L11.2211 15.8039Z" fill="#373737"/>
</svg>
