<svg width="13" height="15" viewBox="0 0 13 15" fill="none" xmlns="http://www.w3.org/2000/svg">
<path d="M1.94396 14.904H2.15996C5.49596 13.32 7.36796 12.24 7.77596 11.664L7.99196 11.88H8.42396L12.096 10.152L12.96 9.288V9.072C12.312 7.776 11.88 7.128 11.664 7.128H10.584C10.584 6.576 10.08 6.144 9.07196 5.832L0.647961 0L0.215961 0.432V1.08C2.03996 2.904 4.27196 4.776 6.91196 6.696L9.71996 8.208V8.64C9.07196 8.664 8.20796 9.096 7.12796 9.936C7.00796 9.792 6.86396 9.72 6.69596 9.72L-4.00543e-05 13.392L0.86396 14.472C0.98396 14.328 1.12796 14.256 1.29596 14.256L1.94396 14.904Z" fill="white"/>
</svg>
