<svg width="13" height="15" viewBox="0 0 13 15" fill="none" xmlns="http://www.w3.org/2000/svg">
<path d="M11.016 14.904H10.8C7.464 13.32 5.592 12.24 5.184 11.664L4.968 11.88H4.536L0.864 10.152L0 9.288V9.072C0.648 7.776 1.08 7.128 1.296 7.128H2.376C2.376 6.576 2.88 6.144 3.888 5.832L12.312 0L12.744 0.432V1.08C10.92 2.904 8.688 4.776 6.048 6.696L3.24 8.208V8.64C3.888 8.664 4.752 9.096 5.832 9.936C5.952 9.792 6.096 9.72 6.264 9.72L12.96 13.392L12.096 14.472C11.976 14.328 11.832 14.256 11.664 14.256L11.016 14.904Z" fill="white"/>
</svg>
