<svg width="23" height="24" viewBox="0 0 23 24" fill="none" xmlns="http://www.w3.org/2000/svg">
<path d="M6.57132 23.8361C6.45132 23.7881 6.39132 23.6441 6.39132 23.4041C6.39132 23.1401 6.45132 22.7681 6.57132 22.2881L6.28332 22.4321L6.06732 22.3961L6.10332 22.2161C6.10332 21.9281 5.89932 21.6281 5.49132 21.3161L5.52732 21.1001C5.52732 20.8121 5.37132 20.6321 5.05932 20.5601L4.87932 20.2721L4.98732 19.8401L5.41932 19.9481L5.52732 19.5161L5.09532 19.4081L5.41932 18.4001L5.27532 15.6281L6.06732 15.1961L5.85132 14.2241C6.09132 13.3841 6.37932 12.9641 6.71532 12.9641L6.89532 13.0001L6.78732 11.8121C7.41132 10.7321 7.84332 10.1921 8.08332 10.1921H8.11932V10.0841C8.11932 9.38808 6.60732 7.80408 3.58332 5.33208L3.33132 5.47608L3.11532 5.44008C1.67532 4.64808 0.955322 4.03608 0.955322 3.60408C0.955322 3.55608 1.00332 3.38808 1.09932 3.10008L2.17932 2.30808L2.39532 2.34408L2.57532 2.63208L2.82732 2.45208C3.95532 2.74008 5.41932 3.96408 7.21932 6.12408L9.48732 7.63608L9.52332 7.42008L14.1673 0.184082C14.6953 0.352081 14.9593 0.712081 14.9593 1.26408C14.9593 1.40808 14.9353 1.55208 14.8873 1.69608L15.1393 1.58808L15.5713 1.69608L15.4633 2.09208L15.3193 2.05608C14.6233 2.05608 13.7593 3.23208 12.7273 5.58408L12.8713 5.87208C12.3913 7.02408 12.0313 7.60008 11.7913 7.60008H11.7553V8.24808L10.9273 9.58008L11.1433 9.65208L19.5313 18.4361C20.4913 18.8441 21.5113 19.7321 22.5913 21.1001L22.3753 21.6761C22.1833 22.3961 21.8833 22.7561 21.4753 22.7561L21.2593 22.7201C19.3153 21.2081 17.0233 18.9401 14.3833 15.9161L9.95532 11.5961L8.29932 14.4401L8.40732 14.7281L7.79532 16.1321L7.47132 17.3561C7.18332 18.3881 7.03932 19.4921 7.03932 20.6681C7.03932 21.6041 7.13532 22.5881 7.32732 23.6201L6.57132 23.8361Z" fill="white"/>
</svg>
