<svg width="15" height="20" viewBox="0 0 15 17" fill="none" xmlns="http://www.w3.org/2000/svg">
<path d="M0.42 8.52L0.78 8.91V8.52H0.42ZM13.41 13.38L13.02 13.02H12.42V13.38L12.66 13.2C12.78 13.2 13.03 13.26 13.41 13.38ZM0.42 8.52L0 8.16V7.92L0.42 7.38L0 6.99C0 5.39 0.98 3.9 2.94 2.52L3.12 2.7L3.69 2.52V2.31H3.12V1.95C4.08 1.29 4.98 0.960001 5.82 0.960001V1.14L6.81 0.780001L6.99 0.960001C7.01 0.32 7.14 0 7.38 0C9.24 0 10.47 0.51 11.07 1.53C11.37 1.53 11.76 1.86 12.24 2.52C12.64 2.52 13.15 3.09 13.77 4.23L13.59 5.04L13.77 5.64L13.41 6H14.58V6.39H14.01V6.81H14.58V7.56L14.19 8.16L14.76 9.51L14.19 11.43L14.37 11.61V11.85L13.77 12.6L14.01 12.78V13.02L12.42 14.76C12.04 14.76 11.85 14.94 11.85 15.3L11.67 15.54H10.08V16.47H9.15C8.87 16.41 8.61 16.1 8.37 15.54L8.55 15.3H8.73L8.55 15.12V14.55C8.65 14.15 9.43 13.7 10.89 13.2L13.41 10.86L13.2 9.9L13.41 9.69L13.2 9.51V9.33L13.41 9.09L13.2 8.91V8.52L13.41 8.34C12.25 5.48 11.34 4.05 10.68 4.05C10.16 3.49 9.39 3.04 8.37 2.7V2.31H8.16L7.98 2.52H7.8V2.13H7.38L7.8 2.7L6.81 2.88V2.7L6.21 2.88L5.64 2.7C5.64 3.1 5.05 3.3 3.87 3.3L4.11 3.48V3.69C3.11 3.99 2.27 4.83 1.59 6.21V7.38C1.59 12.1 2.74 14.82 5.04 15.54H5.64C5.64 15.92 5.77 16.11 6.03 16.11L5.82 16.29V16.47C5.72 16.37 5.6 16.31 5.46 16.29L4.68 16.89C3.72 16.71 3.06 16.26 2.7 15.54C2.2 15.54 1.95 15.34 1.95 14.94V14.76L2.13 14.55C1.49 13.71 0.84 12.09 0.18 9.69L0.42 9.51L0 9.09V8.91L0.42 8.52ZM6.39 15.9L5.82 15.72V15.12H6.21L6.39 15.3H6.63L6.39 15.9Z" fill="#CCCCCC"/>
</svg>
